<svg xmlns="http://www.w3.org/2000/svg" version="1.1" xmlns:xlink="http://www.w3.org/1999/xlink" xmlns:svgjs="http://svgjs.com/svgjs" width="1000" height="1000"><rect width="1000" height="1000" rx="350" ry="350" fill="#11221e"></rect><g transform="matrix(13.333333333333334,0,0,13.333333333333334,104.78656260172522,180)"><svg xmlns="http://www.w3.org/2000/svg" version="1.1" xmlns:xlink="http://www.w3.org/1999/xlink" xmlns:svgjs="http://svgjs.com/svgjs" width="60" height="48"><svg width="60" height="48" viewBox="0 0 60 48" fill="none" xmlns="http://www.w3.org/2000/svg">
<path d="M34.048 48L27.2704 23.9851H31.9491L36.276 41.6328H36.4988L41.1188 23.9851H45.3754L50.0071 41.6445H50.2182L54.5451 23.9851H59.2238L52.4462 48H48.1544L43.3468 31.1497H43.1591L38.3397 48H34.048Z" fill="#C7F29B"></path>
<path d="M25.1758 0L31.9534 24.0149H27.2748L22.9479 6.36724H22.7251L18.105 24.0149H13.8484L9.21666 6.35551H9.00559L4.67869 24.0149H0L6.77765 0H11.0694L15.8771 16.8503H16.0647L20.8841 0H25.1758Z" fill="white"></path>
</svg></svg></g></svg>